<svg width="97" height="26" viewBox="0 0 97 26" fill="none" xmlns="http://www.w3.org/2000/svg">
<path d="M78.8204 1.68867C78.8854 0.763811 79.4189 0.284668 80.4199 0.284668H87.3517C88.3527 0.284668 88.875 0.763811 88.9405 1.68867H78.8204ZM76.8941 4.70281C77.0575 3.71249 77.5255 3.16835 78.6134 3.16835H89.0709C90.1592 3.16835 90.6267 3.71249 90.7902 4.70281H76.8941ZM77.7758 25.7155C75.5124 25.7155 74.3586 24.5947 74.3586 22.342V9.80624C74.3586 7.56467 75.5124 6.4332 77.7758 6.4332H90.2242C92.4987 6.4332 93.6414 7.56467 93.6414 9.80624V22.342C93.6414 24.5835 92.5094 25.7155 90.5506 25.7155H77.7758ZM86.99 14.2235C87.4631 14.0953 87.6107 13.9969 87.6107 13.4253V11.4944C87.6107 11.1202 87.4826 10.9526 86.9607 11.0807L84.0738 11.7999C83.591 11.9183 83.4828 12.0167 83.4828 12.598V17.0412C83.4828 17.4748 83.4433 17.5538 82.9507 17.6912L82.0444 17.928C81.1479 18.1648 80.3892 18.6964 80.3892 19.6621C80.3892 20.4992 81.0198 21.1102 82.0147 21.1102C83.4238 21.1102 84.3793 20.0953 84.3793 18.6667V15.2876C84.3793 14.9231 84.4582 14.8247 84.6848 14.775L86.99 14.2235Z" fill="white"/>
<path d="M31.3173 4.67188V3.72727H36.9458V4.67188H34.6767V11H33.5829V4.67188H31.3173ZM39.611 11.1101C39.0996 11.1101 38.6533 10.9929 38.2722 10.7585C37.891 10.5241 37.5951 10.1963 37.3844 9.77486C37.1737 9.35346 37.0684 8.86103 37.0684 8.29759C37.0684 7.73177 37.1737 7.23698 37.3844 6.81321C37.5951 6.38944 37.891 6.06037 38.2722 5.82599C38.6533 5.59162 39.0996 5.47443 39.611 5.47443C40.1223 5.47443 40.5686 5.59162 40.9498 5.82599C41.3309 6.06037 41.6268 6.38944 41.8375 6.81321C42.0482 7.23698 42.1536 7.73177 42.1536 8.29759C42.1536 8.86103 42.0482 9.35346 41.8375 9.77486C41.6268 10.1963 41.3309 10.5241 40.9498 10.7585C40.5686 10.9929 40.1223 11.1101 39.611 11.1101ZM39.6145 10.2188C39.946 10.2188 40.2206 10.1312 40.4384 9.95597C40.6562 9.78078 40.8172 9.54759 40.9213 9.25639C41.0279 8.9652 41.0811 8.64441 41.0811 8.29403C41.0811 7.94602 41.0279 7.62642 40.9213 7.33523C40.8172 7.04167 40.6562 6.80611 40.4384 6.62855C40.2206 6.45099 39.946 6.36222 39.6145 6.36222C39.2807 6.36222 39.0037 6.45099 38.7836 6.62855C38.5658 6.80611 38.4036 7.04167 38.2971 7.33523C38.1929 7.62642 38.1408 7.94602 38.1408 8.29403C38.1408 8.64441 38.1929 8.9652 38.2971 9.25639C38.4036 9.54759 38.5658 9.78078 38.7836 9.95597C39.0037 10.1312 39.2807 10.2188 39.6145 10.2188ZM45.3807 11.1065C44.9403 11.1065 44.5473 10.9941 44.2017 10.7692C43.8584 10.5419 43.5885 10.2187 43.392 9.79972C43.1979 9.37831 43.1009 8.87287 43.1009 8.28338C43.1009 7.69389 43.1991 7.18963 43.3956 6.7706C43.5945 6.35156 43.8667 6.03078 44.2124 5.80824C44.558 5.5857 44.9498 5.47443 45.3878 5.47443C45.7263 5.47443 45.9986 5.53125 46.2045 5.64489C46.4129 5.75616 46.5739 5.88636 46.6875 6.03551C46.8035 6.18466 46.8935 6.31605 46.9574 6.42969H47.0213V3.72727H48.0831V11H47.0462V10.1513H46.9574C46.8935 10.2673 46.8011 10.3999 46.6804 10.549C46.562 10.6982 46.3987 10.8284 46.1903 10.9396C45.982 11.0509 45.7121 11.1065 45.3807 11.1065ZM45.6151 10.201C45.9205 10.201 46.1785 10.1205 46.3892 9.95952C46.6023 9.79616 46.7633 9.57008 46.8722 9.28125C46.9834 8.99242 47.0391 8.65625 47.0391 8.27273C47.0391 7.89394 46.9846 7.5625 46.8757 7.27841C46.7668 6.99432 46.607 6.77296 46.3963 6.61435C46.1856 6.45573 45.9252 6.37642 45.6151 6.37642C45.2955 6.37642 45.0291 6.45928 44.8161 6.625C44.603 6.79072 44.442 7.01681 44.3331 7.30327C44.2266 7.58973 44.1733 7.91288 44.1733 8.27273C44.1733 8.63731 44.2277 8.9652 44.3366 9.25639C44.4455 9.54759 44.6065 9.77841 44.8196 9.94886C45.035 10.117 45.3002 10.201 45.6151 10.201ZM51.1859 11.1207C50.8403 11.1207 50.5278 11.0568 50.2484 10.929C49.969 10.7988 49.7477 10.6106 49.5843 10.3643C49.4234 10.1181 49.3429 9.81629 49.3429 9.45881C49.3429 9.15104 49.402 8.89773 49.5204 8.69886C49.6388 8.5 49.7986 8.34257 49.9998 8.22656C50.2011 8.11056 50.426 8.02296 50.6745 7.96378C50.9231 7.90459 51.1764 7.85961 51.4345 7.82884C51.7612 7.79096 52.0263 7.76018 52.2299 7.73651C52.4335 7.71046 52.5815 7.66903 52.6738 7.61222C52.7662 7.5554 52.8123 7.46307 52.8123 7.33523V7.31037C52.8123 7.00024 52.7247 6.75994 52.5495 6.58949C52.3767 6.41903 52.1187 6.33381 51.7754 6.33381C51.4179 6.33381 51.1362 6.41312 50.9302 6.57173C50.7266 6.72798 50.5858 6.90199 50.5076 7.09375L49.5098 6.86648C49.6281 6.53504 49.801 6.26752 50.0282 6.06392C50.2579 5.85795 50.5218 5.70881 50.8201 5.61648C51.1184 5.52178 51.4321 5.47443 51.7612 5.47443C51.979 5.47443 52.2098 5.50047 52.4537 5.55256C52.6999 5.60227 52.9295 5.6946 53.1426 5.82955C53.358 5.96449 53.5344 6.15743 53.6717 6.40838C53.809 6.65696 53.8777 6.98011 53.8777 7.37784V11H52.8407V10.2543H52.7981C52.7295 10.3916 52.6265 10.5265 52.4892 10.6591C52.3519 10.7917 52.1755 10.9018 51.96 10.9893C51.7446 11.0769 51.4866 11.1207 51.1859 11.1207ZM51.4167 10.2685C51.7103 10.2685 51.9612 10.2105 52.1696 10.0945C52.3803 9.97846 52.5401 9.82694 52.649 9.63991C52.7602 9.45052 52.8159 9.24811 52.8159 9.03267V8.32955C52.778 8.36742 52.7046 8.40294 52.5957 8.43608C52.4892 8.46686 52.3672 8.49408 52.2299 8.51776C52.0926 8.53906 51.9589 8.55919 51.8287 8.57812C51.6984 8.5947 51.5895 8.6089 51.502 8.62074C51.296 8.64678 51.1078 8.69058 50.9373 8.75213C50.7692 8.81368 50.6343 8.90246 50.5325 9.01847C50.4331 9.1321 50.3833 9.28362 50.3833 9.47301C50.3833 9.7358 50.4804 9.93466 50.6745 10.0696C50.8687 10.2022 51.1161 10.2685 51.4167 10.2685ZM55.7678 13.0455C55.6091 13.0455 55.4647 13.0324 55.3345 13.0064C55.2043 12.9827 55.1072 12.9567 55.0433 12.9283L55.299 12.0582C55.4931 12.1103 55.666 12.1328 55.8175 12.1257C55.969 12.1186 56.1027 12.0618 56.2188 11.9553C56.3371 11.8487 56.4413 11.6747 56.5312 11.4332L56.6626 11.071L54.6669 5.54545H55.8033L57.1847 9.77841H57.2415L58.6229 5.54545H59.7628L57.5149 11.728C57.4107 12.0121 57.2782 12.2524 57.1172 12.4489C56.9562 12.6477 56.7644 12.7969 56.5419 12.8963C56.3194 12.9957 56.0613 13.0455 55.7678 13.0455ZM62.0151 3.72727V4.40909C62.0151 4.61032 61.9772 4.82221 61.9015 5.04474C61.8281 5.26491 61.7239 5.4768 61.589 5.6804C61.454 5.884 61.2954 6.05919 61.1131 6.20597L60.5875 5.82955C60.7272 5.62595 60.848 5.40933 60.9498 5.17969C61.0539 4.95005 61.106 4.69673 61.106 4.41974V3.72727H62.0151ZM66.4398 6.87713L65.4775 7.04759C65.4372 6.92448 65.3733 6.80729 65.2857 6.69602C65.2005 6.58475 65.0845 6.49361 64.9377 6.42259C64.7909 6.35156 64.6074 6.31605 64.3873 6.31605C64.0866 6.31605 63.8356 6.38352 63.6344 6.51847C63.4332 6.65104 63.3326 6.82268 63.3326 7.03338C63.3326 7.21567 63.4 7.36245 63.535 7.47372C63.6699 7.58499 63.8877 7.67614 64.1884 7.74716L65.0549 7.94602C65.5568 8.06203 65.9308 8.24077 66.177 8.48224C66.4232 8.72372 66.5463 9.03741 66.5463 9.4233C66.5463 9.75 66.4516 10.0412 66.2623 10.2969C66.0752 10.5502 65.8136 10.7491 65.4775 10.8935C65.1436 11.0379 64.7566 11.1101 64.3162 11.1101C63.7054 11.1101 63.2071 10.9799 62.8212 10.7195C62.4353 10.4567 62.1986 10.0838 62.111 9.60085L63.1373 9.4446C63.2012 9.71212 63.3326 9.91454 63.5314 10.0518C63.7303 10.1868 63.9895 10.2543 64.3091 10.2543C64.6571 10.2543 64.9353 10.1821 65.1436 10.0376C65.352 9.89086 65.4561 9.71212 65.4561 9.50142C65.4561 9.33097 65.3922 9.18774 65.2644 9.07173C65.1389 8.95573 64.946 8.86813 64.6855 8.80895L63.7623 8.60653C63.2533 8.49053 62.8768 8.30587 62.633 8.05256C62.3915 7.79924 62.2708 7.47846 62.2708 7.0902C62.2708 6.76823 62.3607 6.48651 62.5407 6.24503C62.7206 6.00355 62.9692 5.81534 63.2864 5.6804C63.6036 5.54309 63.967 5.47443 64.3766 5.47443C64.9661 5.47443 65.4301 5.60227 65.7686 5.85795C66.1072 6.11127 66.3309 6.45099 66.4398 6.87713ZM33.6877 23V15.7273H36.28C36.8458 15.7273 37.3146 15.8303 37.6863 16.0362C38.0579 16.2422 38.3361 16.5239 38.5208 16.8814C38.7054 17.2365 38.7978 17.6366 38.7978 18.0817C38.7978 18.5291 38.7042 18.9316 38.5172 19.2891C38.3326 19.6442 38.0532 19.9259 37.6792 20.1342C37.3075 20.3402 36.8399 20.4432 36.2765 20.4432H34.4938V19.5128H36.177C36.5345 19.5128 36.8245 19.4512 37.0471 19.3281C37.2696 19.2027 37.4329 19.0322 37.5371 18.8168C37.6413 18.6013 37.6934 18.3563 37.6934 18.0817C37.6934 17.8071 37.6413 17.5632 37.5371 17.3501C37.4329 17.1371 37.2684 16.9702 37.0435 16.8494C36.821 16.7287 36.5274 16.6683 36.1628 16.6683H34.785V23H33.6877ZM41.0607 15.7273V23H39.9989V15.7273H41.0607ZM44.0765 23.1207C43.7309 23.1207 43.4184 23.0568 43.139 22.929C42.8597 22.7988 42.6383 22.6106 42.475 22.3643C42.314 22.1181 42.2335 21.8163 42.2335 21.4588C42.2335 21.151 42.2927 20.8977 42.411 20.6989C42.5294 20.5 42.6892 20.3426 42.8904 20.2266C43.0917 20.1106 43.3166 20.023 43.5652 19.9638C43.8137 19.9046 44.0671 19.8596 44.3251 19.8288C44.6518 19.791 44.917 19.7602 45.1206 19.7365C45.3242 19.7105 45.4721 19.669 45.5645 19.6122C45.6568 19.5554 45.7029 19.4631 45.7029 19.3352V19.3104C45.7029 19.0002 45.6154 18.7599 45.4402 18.5895C45.2673 18.419 45.0093 18.3338 44.666 18.3338C44.3085 18.3338 44.0268 18.4131 43.8208 18.5717C43.6172 18.728 43.4764 18.902 43.3983 19.0938L42.4004 18.8665C42.5188 18.535 42.6916 18.2675 42.9189 18.0639C43.1485 17.858 43.4125 17.7088 43.7108 17.6165C44.0091 17.5218 44.3227 17.4744 44.6518 17.4744C44.8696 17.4744 45.1004 17.5005 45.3443 17.5526C45.5905 17.6023 45.8201 17.6946 46.0332 17.8295C46.2486 17.9645 46.425 18.1574 46.5623 18.4084C46.6996 18.657 46.7683 18.9801 46.7683 19.3778V23H45.7314V22.2543H45.6887C45.6201 22.3916 45.5171 22.5265 45.3798 22.6591C45.2425 22.7917 45.0661 22.9018 44.8507 22.9893C44.6352 23.0769 44.3772 23.1207 44.0765 23.1207ZM44.3074 22.2685C44.6009 22.2685 44.8519 22.2105 45.0602 22.0945C45.2709 21.9785 45.4307 21.8269 45.5396 21.6399C45.6509 21.4505 45.7065 21.2481 45.7065 21.0327V20.3295C45.6686 20.3674 45.5952 20.4029 45.4863 20.4361C45.3798 20.4669 45.2579 20.4941 45.1206 20.5178C44.9833 20.5391 44.8495 20.5592 44.7193 20.5781C44.5891 20.5947 44.4802 20.6089 44.3926 20.6207C44.1866 20.6468 43.9984 20.6906 43.8279 20.7521C43.6599 20.8137 43.5249 20.9025 43.4231 21.0185C43.3237 21.1321 43.274 21.2836 43.274 21.473C43.274 21.7358 43.371 21.9347 43.5652 22.0696C43.7593 22.2022 44.0067 22.2685 44.3074 22.2685ZM48.6584 25.0455C48.4998 25.0455 48.3554 25.0324 48.2251 25.0064C48.0949 24.9827 47.9979 24.9567 47.9339 24.9283L48.1896 24.0582C48.3838 24.1103 48.5566 24.1328 48.7081 24.1257C48.8596 24.1186 48.9934 24.0618 49.1094 23.9553C49.2277 23.8487 49.3319 23.6747 49.4219 23.4332L49.5533 23.071L47.5575 17.5455H48.6939L50.0753 21.7784H50.1321L51.5135 17.5455H52.6534L50.4055 23.728C50.3014 24.0121 50.1688 24.2524 50.0078 24.4489C49.8468 24.6477 49.6551 24.7969 49.4325 24.8963C49.21 24.9957 48.9519 25.0455 48.6584 25.0455ZM54.7131 15.7273V23H53.6513V15.7273H54.7131ZM56.1415 23V17.5455H57.2033V23H56.1415ZM56.6777 16.7038C56.4931 16.7038 56.3345 16.6423 56.2019 16.5192C56.0717 16.3937 56.0066 16.2446 56.0066 16.0717C56.0066 15.8965 56.0717 15.7474 56.2019 15.6243C56.3345 15.4988 56.4931 15.4361 56.6777 15.4361C56.8624 15.4361 57.0198 15.4988 57.15 15.6243C57.2826 15.7474 57.3489 15.8965 57.3489 16.0717C57.3489 16.2446 57.2826 16.3937 57.15 16.5192C57.0198 16.6423 56.8624 16.7038 56.6777 16.7038ZM62.7191 18.8771L61.7567 19.0476C61.7165 18.9245 61.6526 18.8073 61.565 18.696C61.4798 18.5848 61.3638 18.4936 61.217 18.4226C61.0702 18.3516 60.8867 18.3161 60.6665 18.3161C60.3659 18.3161 60.1149 18.3835 59.9137 18.5185C59.7125 18.651 59.6119 18.8227 59.6119 19.0334C59.6119 19.2157 59.6793 19.3625 59.8143 19.4737C59.9492 19.585 60.167 19.6761 60.4677 19.7472L61.3342 19.946C61.8361 20.062 62.2101 20.2408 62.4563 20.4822C62.7025 20.7237 62.8256 21.0374 62.8256 21.4233C62.8256 21.75 62.7309 22.0412 62.5415 22.2969C62.3545 22.5502 62.0929 22.7491 61.7567 22.8935C61.4229 23.0379 61.0359 23.1101 60.5955 23.1101C59.9847 23.1101 59.4864 22.9799 59.1005 22.7195C58.7146 22.4567 58.4779 22.0838 58.3903 21.6009L59.4165 21.4446C59.4805 21.7121 59.6119 21.9145 59.8107 22.0518C60.0096 22.1868 60.2688 22.2543 60.5884 22.2543C60.9364 22.2543 61.2146 22.1821 61.4229 22.0376C61.6313 21.8909 61.7354 21.7121 61.7354 21.5014C61.7354 21.331 61.6715 21.1877 61.5437 21.0717C61.4182 20.9557 61.2253 20.8681 60.9648 20.8089L60.0415 20.6065C59.5326 20.4905 59.1561 20.3059 58.9123 20.0526C58.6708 19.7992 58.5501 19.4785 58.5501 19.0902C58.5501 18.7682 58.64 18.4865 58.82 18.245C58.9999 18.0036 59.2485 17.8153 59.5657 17.6804C59.8829 17.5431 60.2463 17.4744 60.6559 17.4744C61.2454 17.4744 61.7094 17.6023 62.0479 17.858C62.3865 18.1113 62.6102 18.451 62.7191 18.8771ZM66.5392 17.5455V18.3977H63.5598V17.5455H66.5392ZM64.3588 16.2386H65.4206V21.3984C65.4206 21.6044 65.4514 21.7595 65.513 21.8636C65.5745 21.9654 65.6538 22.0353 65.7509 22.0732C65.8503 22.1087 65.958 22.1264 66.074 22.1264C66.1593 22.1264 66.2338 22.1205 66.2978 22.1087C66.3617 22.0968 66.4114 22.0874 66.4469 22.0803L66.6387 22.9574C66.5771 22.9811 66.4895 23.0047 66.3759 23.0284C66.2623 23.0545 66.1202 23.0687 65.9498 23.071C65.6704 23.0758 65.41 23.026 65.1685 22.9219C64.927 22.8177 64.7317 22.6567 64.5826 22.4389C64.4334 22.2211 64.3588 21.9477 64.3588 21.6186V16.2386Z" fill="white"/>
</svg>
