<svg width="35" height="35" viewBox="0 0 35 35" fill="none" xmlns="http://www.w3.org/2000/svg">
<path d="M34.4486 24.9847C34.6234 25.1604 34.762 25.3691 34.8567 25.599C34.9513 25.8288 35 26.0752 35 26.3241C35 26.573 34.9513 26.8194 34.8567 27.0492C34.762 27.2791 34.6234 27.4878 34.4486 27.6635L30.6989 31.4452C30.3467 31.8004 29.869 32 29.3709 32C28.8728 32 28.3951 31.8004 28.0429 31.4452C27.6907 31.09 27.4928 30.6082 27.4928 30.1058C27.4928 29.6035 27.6907 29.1217 28.0429 28.7665L28.5913 28.2134H28.2647C26.3749 28.2113 24.5127 27.7553 22.8323 26.8831C21.1519 26.0109 19.7016 24.7476 18.6015 23.1978L12.0896 13.9972C11.337 12.9365 10.3447 12.072 9.1949 11.4752C8.04508 10.8784 6.77081 10.5664 5.47765 10.5652H1.87484C1.3776 10.5652 0.900727 10.366 0.549127 10.0114C0.197527 9.65678 0 9.17582 0 8.67433C0 8.17284 0.197527 7.69189 0.549127 7.33728C0.900727 6.98267 1.3776 6.78346 1.87484 6.78346H5.47765C7.36751 6.78556 9.22969 7.24158 10.9101 8.11376C12.5905 8.98594 14.0408 10.2492 15.1409 11.799L21.6575 20.9997C22.4101 22.0603 23.4023 22.9248 24.5522 23.5217C25.702 24.1185 26.9763 24.4304 28.2694 24.4316H28.5913L28.0413 23.8786C27.6891 23.5233 27.4912 23.0415 27.4912 22.5392C27.4912 22.0368 27.6891 21.555 28.0413 21.1998C28.3935 20.8446 28.8712 20.645 29.3693 20.645C29.8674 20.645 30.3451 20.8446 30.6973 21.1998L34.4486 24.9847ZM19.5092 13.5418C19.8834 13.8718 20.3723 14.0385 20.8683 14.0051C21.3644 13.9717 21.8269 13.741 22.1543 13.3637C22.9169 12.4846 23.8571 11.7801 24.9118 11.2974C25.9664 10.8148 27.1112 10.5651 28.2694 10.5652H28.5913L28.0413 11.1183C27.6891 11.4735 27.4912 11.9553 27.4912 12.4577C27.4912 12.96 27.6891 13.4418 28.0413 13.797C28.3935 14.1523 28.8712 14.3518 29.3693 14.3518C29.8674 14.3518 30.3451 14.1523 30.6973 13.797L34.447 10.0153C34.6218 9.83961 34.7605 9.63087 34.8551 9.40103C34.9497 9.17119 34.9984 8.92478 34.9984 8.67591C34.9984 8.42704 34.9497 8.18063 34.8551 7.95079C34.7605 7.72095 34.6218 7.51221 34.447 7.33654L30.6973 3.55479C30.3451 3.19956 29.8674 3 29.3693 3C28.8712 3 28.3935 3.19956 28.0413 3.55479C27.6891 3.91001 27.4912 4.39179 27.4912 4.89416C27.4912 5.39652 27.6891 5.8783 28.0413 6.23353L28.5913 6.78346H28.2647C26.5716 6.78427 24.8983 7.15026 23.3569 7.85687C21.8156 8.56347 20.4419 9.59435 19.328 10.8804C19.0032 11.258 18.84 11.75 18.874 12.2488C18.9079 12.7475 19.1363 13.2124 19.5092 13.5418ZM14.2378 21.4551C13.8636 21.125 13.3748 20.9584 12.8787 20.9917C12.3827 21.0251 11.9201 21.2558 11.5927 21.6331C10.8301 22.5123 9.88997 23.2168 8.8353 23.6994C7.78062 24.1821 6.63582 24.4317 5.47765 24.4316H1.87484C1.3776 24.4316 0.900727 24.6309 0.549127 24.9855C0.197527 25.3401 0 25.821 0 26.3225C0 26.824 0.197527 27.305 0.549127 27.6596C0.900727 28.0142 1.3776 28.2134 1.87484 28.2134H5.47765C7.17075 28.2126 8.84411 27.8466 10.3855 27.14C11.9268 26.4334 13.3005 25.4025 14.4144 24.1165C14.7397 23.7394 14.9038 23.2478 14.8707 22.749C14.8376 22.2503 14.6101 21.7851 14.2378 21.4551Z" fill="white"/>
</svg>
