<svg width="35" height="35" viewBox="0 0 35 35" fill="none" xmlns="http://www.w3.org/2000/svg">
<path d="M17.9334 5.96969V0.909608C17.9334 0.0934654 16.9844 -0.305538 16.4396 0.27483L9.76181 7.14856C9.41034 7.51129 9.41034 8.07353 9.76181 8.43626L16.4221 15.31C16.9844 15.8722 17.9334 15.4732 17.9334 14.6571V9.59699C24.4882 9.59699 29.6723 15.7997 28.2313 22.8185C27.4053 26.9355 24.1719 30.2545 20.2003 31.1069C13.9267 32.4671 8.33837 28.0237 7.49486 22.0205C7.43221 21.5942 7.22445 21.2049 6.90885 20.9224C6.59325 20.6399 6.19044 20.4826 5.77268 20.4789C4.71829 20.4789 3.87477 21.4401 4.01536 22.5283C5.1049 30.4902 12.4505 36.3846 20.7627 34.716C26.2455 33.6097 30.6564 29.0575 31.7284 23.3989C33.4681 14.0948 26.6145 5.96969 17.9334 5.96969Z" fill="white"/>
</svg>
