<svg width="32" height="24" viewBox="0 0 32 24" fill="none" xmlns="http://www.w3.org/2000/svg">
<path d="M30.0613 17.9386C30.2011 18.078 30.312 18.2436 30.3878 18.4259C30.4635 18.6082 30.5024 18.8037 30.5024 19.0011C30.5024 19.1986 30.4635 19.394 30.3878 19.5764C30.312 19.7587 30.2011 19.9243 30.0613 20.0636L27.0613 23.0636C26.7795 23.3454 26.3973 23.5037 25.9988 23.5037C25.6002 23.5037 25.218 23.3454 24.9363 23.0636C24.6545 22.7818 24.4961 22.3997 24.4961 22.0011C24.4961 21.6026 24.6545 21.2204 24.9363 20.9386L25.375 20.4999H25.1138C23.6017 20.4982 22.1119 20.1365 20.7674 19.4446C19.423 18.7527 18.2627 17.7506 17.3825 16.5211L12.1725 9.22239C11.5704 8.38101 10.7765 7.6952 9.85656 7.22176C8.93662 6.74831 7.91712 6.50085 6.8825 6.49989H4C3.60218 6.49989 3.22064 6.34185 2.93934 6.06055C2.65804 5.77924 2.5 5.39771 2.5 4.99989C2.5 4.60206 2.65804 4.22053 2.93934 3.93923C3.22064 3.65792 3.60218 3.49989 4 3.49989H6.8825C8.39452 3.50156 9.8844 3.86331 11.2288 4.55519C12.5733 5.24708 13.7336 6.24921 14.6138 7.47864L19.8275 14.7774C20.4296 15.6188 21.2235 16.3046 22.1434 16.778C23.0634 17.2515 24.0829 17.4989 25.1175 17.4999H25.375L24.935 17.0611C24.6532 16.7793 24.4949 16.3972 24.4949 15.9986C24.4949 15.6001 24.6532 15.2179 24.935 14.9361C25.2168 14.6543 25.599 14.496 25.9975 14.496C26.396 14.496 26.7782 14.6543 27.06 14.9361L30.0613 17.9386ZM18.1087 8.86114C18.4081 9.12297 18.7993 9.25519 19.1961 9.2287C19.593 9.20221 19.9631 9.01919 20.225 8.71989C20.8351 8.0225 21.5873 7.46363 22.4311 7.08075C23.275 6.69786 24.1909 6.49981 25.1175 6.49989H25.375L24.935 6.93864C24.6532 7.22043 24.4949 7.60262 24.4949 8.00114C24.4949 8.39965 24.6532 8.78184 24.935 9.06364C25.2168 9.34543 25.599 9.50374 25.9975 9.50374C26.396 9.50374 26.7782 9.34543 27.06 9.06364L30.06 6.06364C30.1998 5.92428 30.3108 5.75869 30.3865 5.57636C30.4622 5.39404 30.5012 5.19856 30.5012 5.00114C30.5012 4.80372 30.4622 4.60824 30.3865 4.42591C30.3108 4.24358 30.1998 4.07799 30.06 3.93864L27.06 0.938637C26.7782 0.656844 26.396 0.498535 25.9975 0.498535C25.599 0.498535 25.2168 0.656845 24.935 0.938637C24.6532 1.22043 24.4949 1.60262 24.4949 2.00114C24.4949 2.39965 24.6532 2.78184 24.935 3.06364L25.375 3.49989H25.1138C23.7591 3.50054 22.4203 3.79087 21.1872 4.3514C19.954 4.91194 18.8549 5.72972 17.9638 6.74989C17.7039 7.04949 17.5733 7.43979 17.6005 7.83544C17.6277 8.23109 17.8104 8.59987 18.1087 8.86114ZM13.8912 15.1386C13.5919 14.8768 13.2007 14.7446 12.8039 14.7711C12.407 14.7976 12.0369 14.9806 11.775 15.2799C11.1649 15.9773 10.4127 16.5361 9.56885 16.919C8.72504 17.3019 7.80912 17.5 6.8825 17.4999H4C3.60218 17.4999 3.22064 17.6579 2.93934 17.9392C2.65804 18.2205 2.5 18.6021 2.5 18.9999C2.5 19.3977 2.65804 19.7792 2.93934 20.0605C3.22064 20.3419 3.60218 20.4999 4 20.4999H6.8825C8.2371 20.4992 9.5759 20.2089 10.8091 19.6484C12.0423 19.0878 13.1413 18.2701 14.0325 17.2499C14.2928 16.9508 14.424 16.5607 14.3976 16.1651C14.3711 15.7695 14.1891 15.4004 13.8912 15.1386Z" fill="white"/>
</svg>
