<svg width="19" height="22" viewBox="0 0 19 22" fill="none" xmlns="http://www.w3.org/2000/svg">
<path d="M15.074 3.44667C14.2457 2.49287 13.7892 1.26797 13.7895 0H10.0453V15.1556C10.0164 15.9757 9.67312 16.7525 9.08773 17.3225C8.50233 17.8924 7.7205 18.211 6.90689 18.2111C5.18622 18.2111 3.75638 16.7933 3.75638 15.0333C3.75638 12.9311 5.76786 11.3544 7.83992 12.0022V8.14C3.65944 7.57778 0 10.8533 0 15.0333C0 19.1033 3.34439 22 6.89477 22C10.6996 22 13.7895 18.8833 13.7895 15.0333V7.34556C15.3078 8.44537 17.1307 9.03546 19 9.03222V5.25556C19 5.25556 16.7219 5.36556 15.074 3.44667Z" fill="white"/>
</svg>
