<svg width="67" height="26" viewBox="0 0 67 26" fill="none" xmlns="http://www.w3.org/2000/svg">
<path d="M48.8204 1.68867C48.8854 0.763811 49.4189 0.284668 50.4199 0.284668H57.3517C58.3527 0.284668 58.875 0.763811 58.9405 1.68867H48.8204ZM46.8941 4.70281C47.0575 3.71249 47.5255 3.16835 48.6134 3.16835H59.0709C60.1592 3.16835 60.6267 3.71249 60.7902 4.70281H46.8941ZM47.7758 25.7155C45.5124 25.7155 44.3586 24.5947 44.3586 22.342V9.80624C44.3586 7.56467 45.5124 6.4332 47.7758 6.4332H60.2242C62.4987 6.4332 63.6414 7.56467 63.6414 9.80624V22.342C63.6414 24.5835 62.5094 25.7155 60.5506 25.7155H47.7758ZM56.99 14.2235C57.4631 14.0953 57.6107 13.9969 57.6107 13.4253V11.4944C57.6107 11.1202 57.4826 10.9526 56.9607 11.0807L54.0738 11.7999C53.591 11.9183 53.4828 12.0167 53.4828 12.598V17.0412C53.4828 17.4748 53.4433 17.5538 52.9507 17.6912L52.0444 17.928C51.1479 18.1648 50.3892 18.6964 50.3892 19.6621C50.3892 20.4992 51.0198 21.1102 52.0147 21.1102C53.4238 21.1102 54.3793 20.0953 54.3793 18.6667V15.2876C54.3793 14.9231 54.4582 14.8247 54.6848 14.775L56.99 14.2235Z" fill="white"/>
<path d="M1.31729 4.67188V3.72727H6.94585V4.67188H4.67667V11H3.58292V4.67188H1.31729ZM9.61097 11.1101C9.09961 11.1101 8.65335 10.9929 8.27219 10.7585C7.89104 10.5241 7.59511 10.1963 7.38441 9.77486C7.17371 9.35346 7.06836 8.86103 7.06836 8.29759C7.06836 7.73177 7.17371 7.23698 7.38441 6.81321C7.59511 6.38944 7.89104 6.06037 8.27219 5.82599C8.65335 5.59162 9.09961 5.47443 9.61097 5.47443C10.1223 5.47443 10.5686 5.59162 10.9498 5.82599C11.3309 6.06037 11.6268 6.38944 11.8375 6.81321C12.0482 7.23698 12.1536 7.73177 12.1536 8.29759C12.1536 8.86103 12.0482 9.35346 11.8375 9.77486C11.6268 10.1963 11.3309 10.5241 10.9498 10.7585C10.5686 10.9929 10.1223 11.1101 9.61097 11.1101ZM9.61452 10.2188C9.94596 10.2188 10.2206 10.1312 10.4384 9.95597C10.6562 9.78078 10.8172 9.54759 10.9213 9.25639C11.0279 8.9652 11.0811 8.64441 11.0811 8.29403C11.0811 7.94602 11.0279 7.62642 10.9213 7.33523C10.8172 7.04167 10.6562 6.80611 10.4384 6.62855C10.2206 6.45099 9.94596 6.36222 9.61452 6.36222C9.28072 6.36222 9.00373 6.45099 8.78356 6.62855C8.56576 6.80611 8.40359 7.04167 8.29705 7.33523C8.19289 7.62642 8.1408 7.94602 8.1408 8.29403C8.1408 8.64441 8.19289 8.9652 8.29705 9.25639C8.40359 9.54759 8.56576 9.78078 8.78356 9.95597C9.00373 10.1312 9.28072 10.2188 9.61452 10.2188ZM15.3807 11.1065C14.9403 11.1065 14.5473 10.9941 14.2017 10.7692C13.8584 10.5419 13.5885 10.2187 13.392 9.79972C13.1979 9.37831 13.1009 8.87287 13.1009 8.28338C13.1009 7.69389 13.1991 7.18963 13.3956 6.7706C13.5945 6.35156 13.8667 6.03078 14.2124 5.80824C14.558 5.5857 14.9498 5.47443 15.3878 5.47443C15.7263 5.47443 15.9986 5.53125 16.2045 5.64489C16.4129 5.75616 16.5739 5.88636 16.6875 6.03551C16.8035 6.18466 16.8935 6.31605 16.9574 6.42969H17.0213V3.72727H18.0831V11H17.0462V10.1513H16.9574C16.8935 10.2673 16.8011 10.3999 16.6804 10.549C16.562 10.6982 16.3987 10.8284 16.1903 10.9396C15.982 11.0509 15.7121 11.1065 15.3807 11.1065ZM15.6151 10.201C15.9205 10.201 16.1785 10.1205 16.3892 9.95952C16.6023 9.79616 16.7633 9.57008 16.8722 9.28125C16.9834 8.99242 17.0391 8.65625 17.0391 8.27273C17.0391 7.89394 16.9846 7.5625 16.8757 7.27841C16.7668 6.99432 16.607 6.77296 16.3963 6.61435C16.1856 6.45573 15.9252 6.37642 15.6151 6.37642C15.2955 6.37642 15.0291 6.45928 14.8161 6.625C14.603 6.79072 14.442 7.01681 14.3331 7.30327C14.2266 7.58973 14.1733 7.91288 14.1733 8.27273C14.1733 8.63731 14.2277 8.9652 14.3366 9.25639C14.4455 9.54759 14.6065 9.77841 14.8196 9.94886C15.035 10.117 15.3002 10.201 15.6151 10.201ZM21.1859 11.1207C20.8403 11.1207 20.5278 11.0568 20.2484 10.929C19.969 10.7988 19.7477 10.6106 19.5843 10.3643C19.4234 10.1181 19.3429 9.81629 19.3429 9.45881C19.3429 9.15104 19.402 8.89773 19.5204 8.69886C19.6388 8.5 19.7986 8.34257 19.9998 8.22656C20.2011 8.11056 20.426 8.02296 20.6745 7.96378C20.9231 7.90459 21.1764 7.85961 21.4345 7.82884C21.7612 7.79096 22.0263 7.76018 22.2299 7.73651C22.4335 7.71046 22.5815 7.66903 22.6738 7.61222C22.7662 7.5554 22.8123 7.46307 22.8123 7.33523V7.31037C22.8123 7.00024 22.7247 6.75994 22.5495 6.58949C22.3767 6.41903 22.1187 6.33381 21.7754 6.33381C21.4179 6.33381 21.1362 6.41312 20.9302 6.57173C20.7266 6.72798 20.5858 6.90199 20.5076 7.09375L19.5098 6.86648C19.6281 6.53504 19.801 6.26752 20.0282 6.06392C20.2579 5.85795 20.5218 5.70881 20.8201 5.61648C21.1184 5.52178 21.4321 5.47443 21.7612 5.47443C21.979 5.47443 22.2098 5.50047 22.4537 5.55256C22.6999 5.60227 22.9295 5.6946 23.1426 5.82955C23.358 5.96449 23.5344 6.15743 23.6717 6.40838C23.809 6.65696 23.8777 6.98011 23.8777 7.37784V11H22.8407V10.2543H22.7981C22.7295 10.3916 22.6265 10.5265 22.4892 10.6591C22.3519 10.7917 22.1755 10.9018 21.96 10.9893C21.7446 11.0769 21.4866 11.1207 21.1859 11.1207ZM21.4167 10.2685C21.7103 10.2685 21.9612 10.2105 22.1696 10.0945C22.3803 9.97846 22.5401 9.82694 22.649 9.63991C22.7602 9.45052 22.8159 9.24811 22.8159 9.03267V8.32955C22.778 8.36742 22.7046 8.40294 22.5957 8.43608C22.4892 8.46686 22.3672 8.49408 22.2299 8.51776C22.0926 8.53906 21.9589 8.55919 21.8287 8.57812C21.6984 8.5947 21.5895 8.6089 21.502 8.62074C21.296 8.64678 21.1078 8.69058 20.9373 8.75213C20.7692 8.81368 20.6343 8.90246 20.5325 9.01847C20.4331 9.1321 20.3833 9.28362 20.3833 9.47301C20.3833 9.7358 20.4804 9.93466 20.6745 10.0696C20.8687 10.2022 21.1161 10.2685 21.4167 10.2685ZM25.7678 13.0455C25.6091 13.0455 25.4647 13.0324 25.3345 13.0064C25.2043 12.9827 25.1072 12.9567 25.0433 12.9283L25.299 12.0582C25.4931 12.1103 25.666 12.1328 25.8175 12.1257C25.969 12.1186 26.1027 12.0618 26.2188 11.9553C26.3371 11.8487 26.4413 11.6747 26.5312 11.4332L26.6626 11.071L24.6669 5.54545H25.8033L27.1847 9.77841H27.2415L28.6229 5.54545H29.7628L27.5149 11.728C27.4107 12.0121 27.2782 12.2524 27.1172 12.4489C26.9562 12.6477 26.7644 12.7969 26.5419 12.8963C26.3194 12.9957 26.0613 13.0455 25.7678 13.0455ZM32.0151 3.72727V4.40909C32.0151 4.61032 31.9772 4.82221 31.9015 5.04474C31.8281 5.26491 31.7239 5.4768 31.589 5.6804C31.454 5.884 31.2954 6.05919 31.1131 6.20597L30.5875 5.82955C30.7272 5.62595 30.848 5.40933 30.9498 5.17969C31.0539 4.95005 31.106 4.69673 31.106 4.41974V3.72727H32.0151ZM36.4398 6.87713L35.4775 7.04759C35.4372 6.92448 35.3733 6.80729 35.2857 6.69602C35.2005 6.58475 35.0845 6.49361 34.9377 6.42259C34.7909 6.35156 34.6074 6.31605 34.3873 6.31605C34.0866 6.31605 33.8356 6.38352 33.6344 6.51847C33.4332 6.65104 33.3326 6.82268 33.3326 7.03338C33.3326 7.21567 33.4 7.36245 33.535 7.47372C33.6699 7.58499 33.8877 7.67614 34.1884 7.74716L35.0549 7.94602C35.5568 8.06203 35.9308 8.24077 36.177 8.48224C36.4232 8.72372 36.5463 9.03741 36.5463 9.4233C36.5463 9.75 36.4516 10.0412 36.2623 10.2969C36.0752 10.5502 35.8136 10.7491 35.4775 10.8935C35.1436 11.0379 34.7566 11.1101 34.3162 11.1101C33.7054 11.1101 33.2071 10.9799 32.8212 10.7195C32.4353 10.4567 32.1986 10.0838 32.111 9.60085L33.1373 9.4446C33.2012 9.71212 33.3326 9.91454 33.5314 10.0518C33.7303 10.1868 33.9895 10.2543 34.3091 10.2543C34.6571 10.2543 34.9353 10.1821 35.1436 10.0376C35.352 9.89086 35.4561 9.71212 35.4561 9.50142C35.4561 9.33097 35.3922 9.18774 35.2644 9.07173C35.1389 8.95573 34.946 8.86813 34.6855 8.80895L33.7623 8.60653C33.2533 8.49053 32.8768 8.30587 32.633 8.05256C32.3915 7.79924 32.2708 7.47846 32.2708 7.0902C32.2708 6.76823 32.3607 6.48651 32.5407 6.24503C32.7206 6.00355 32.9692 5.81534 33.2864 5.6804C33.6036 5.54309 33.967 5.47443 34.3766 5.47443C34.9661 5.47443 35.4301 5.60227 35.7686 5.85795C36.1072 6.11127 36.3309 6.45099 36.4398 6.87713ZM3.68768 23V15.7273H6.28001C6.84582 15.7273 7.31457 15.8303 7.68626 16.0362C8.05794 16.2422 8.33612 16.5239 8.52077 16.8814C8.70543 17.2365 8.79776 17.6366 8.79776 18.0817C8.79776 18.5291 8.70425 18.9316 8.51722 19.2891C8.33256 19.6442 8.05321 19.9259 7.67915 20.1342C7.30747 20.3402 6.8399 20.4432 6.27646 20.4432H4.49379V19.5128H6.17702C6.53451 19.5128 6.82451 19.4512 7.04705 19.3281C7.26959 19.2027 7.43294 19.0322 7.53711 18.8168C7.64128 18.6013 7.69336 18.3563 7.69336 18.0817C7.69336 17.8071 7.64128 17.5632 7.53711 17.3501C7.43294 17.1371 7.26841 16.9702 7.0435 16.8494C6.82096 16.7287 6.5274 16.6683 6.16282 16.6683H4.78498V23H3.68768ZM11.0607 15.7273V23H9.99893V15.7273H11.0607ZM14.0765 23.1207C13.7309 23.1207 13.4184 23.0568 13.139 22.929C12.8597 22.7988 12.6383 22.6106 12.475 22.3643C12.314 22.1181 12.2335 21.8163 12.2335 21.4588C12.2335 21.151 12.2927 20.8977 12.411 20.6989C12.5294 20.5 12.6892 20.3426 12.8904 20.2266C13.0917 20.1106 13.3166 20.023 13.5652 19.9638C13.8137 19.9046 14.0671 19.8596 14.3251 19.8288C14.6518 19.791 14.917 19.7602 15.1206 19.7365C15.3242 19.7105 15.4721 19.669 15.5645 19.6122C15.6568 19.5554 15.7029 19.4631 15.7029 19.3352V19.3104C15.7029 19.0002 15.6154 18.7599 15.4402 18.5895C15.2673 18.419 15.0093 18.3338 14.666 18.3338C14.3085 18.3338 14.0268 18.4131 13.8208 18.5717C13.6172 18.728 13.4764 18.902 13.3983 19.0938L12.4004 18.8665C12.5188 18.535 12.6916 18.2675 12.9189 18.0639C13.1485 17.858 13.4125 17.7088 13.7108 17.6165C14.0091 17.5218 14.3227 17.4744 14.6518 17.4744C14.8696 17.4744 15.1004 17.5005 15.3443 17.5526C15.5905 17.6023 15.8201 17.6946 16.0332 17.8295C16.2486 17.9645 16.425 18.1574 16.5623 18.4084C16.6996 18.657 16.7683 18.9801 16.7683 19.3778V23H15.7314V22.2543H15.6887C15.6201 22.3916 15.5171 22.5265 15.3798 22.6591C15.2425 22.7917 15.0661 22.9018 14.8507 22.9893C14.6352 23.0769 14.3772 23.1207 14.0765 23.1207ZM14.3074 22.2685C14.6009 22.2685 14.8519 22.2105 15.0602 22.0945C15.2709 21.9785 15.4307 21.8269 15.5396 21.6399C15.6509 21.4505 15.7065 21.2481 15.7065 21.0327V20.3295C15.6686 20.3674 15.5952 20.4029 15.4863 20.4361C15.3798 20.4669 15.2579 20.4941 15.1206 20.5178C14.9833 20.5391 14.8495 20.5592 14.7193 20.5781C14.5891 20.5947 14.4802 20.6089 14.3926 20.6207C14.1866 20.6468 13.9984 20.6906 13.8279 20.7521C13.6599 20.8137 13.5249 20.9025 13.4231 21.0185C13.3237 21.1321 13.274 21.2836 13.274 21.473C13.274 21.7358 13.371 21.9347 13.5652 22.0696C13.7593 22.2022 14.0067 22.2685 14.3074 22.2685ZM18.6584 25.0455C18.4998 25.0455 18.3554 25.0324 18.2251 25.0064C18.0949 24.9827 17.9979 24.9567 17.9339 24.9283L18.1896 24.0582C18.3838 24.1103 18.5566 24.1328 18.7081 24.1257C18.8596 24.1186 18.9934 24.0618 19.1094 23.9553C19.2277 23.8487 19.3319 23.6747 19.4219 23.4332L19.5533 23.071L17.5575 17.5455H18.6939L20.0753 21.7784H20.1321L21.5135 17.5455H22.6534L20.4055 23.728C20.3014 24.0121 20.1688 24.2524 20.0078 24.4489C19.8468 24.6477 19.6551 24.7969 19.4325 24.8963C19.21 24.9957 18.9519 25.0455 18.6584 25.0455ZM24.7131 15.7273V23H23.6513V15.7273H24.7131ZM26.1415 23V17.5455H27.2033V23H26.1415ZM26.6777 16.7038C26.4931 16.7038 26.3345 16.6423 26.2019 16.5192C26.0717 16.3937 26.0066 16.2446 26.0066 16.0717C26.0066 15.8965 26.0717 15.7474 26.2019 15.6243C26.3345 15.4988 26.4931 15.4361 26.6777 15.4361C26.8624 15.4361 27.0198 15.4988 27.15 15.6243C27.2826 15.7474 27.3489 15.8965 27.3489 16.0717C27.3489 16.2446 27.2826 16.3937 27.15 16.5192C27.0198 16.6423 26.8624 16.7038 26.6777 16.7038ZM32.7191 18.8771L31.7567 19.0476C31.7165 18.9245 31.6526 18.8073 31.565 18.696C31.4798 18.5848 31.3638 18.4936 31.217 18.4226C31.0702 18.3516 30.8867 18.3161 30.6665 18.3161C30.3659 18.3161 30.1149 18.3835 29.9137 18.5185C29.7125 18.651 29.6119 18.8227 29.6119 19.0334C29.6119 19.2157 29.6793 19.3625 29.8143 19.4737C29.9492 19.585 30.167 19.6761 30.4677 19.7472L31.3342 19.946C31.8361 20.062 32.2101 20.2408 32.4563 20.4822C32.7025 20.7237 32.8256 21.0374 32.8256 21.4233C32.8256 21.75 32.7309 22.0412 32.5415 22.2969C32.3545 22.5502 32.0929 22.7491 31.7567 22.8935C31.4229 23.0379 31.0359 23.1101 30.5955 23.1101C29.9847 23.1101 29.4864 22.9799 29.1005 22.7195C28.7146 22.4567 28.4779 22.0838 28.3903 21.6009L29.4165 21.4446C29.4805 21.7121 29.6119 21.9145 29.8107 22.0518C30.0096 22.1868 30.2688 22.2543 30.5884 22.2543C30.9364 22.2543 31.2146 22.1821 31.4229 22.0376C31.6313 21.8909 31.7354 21.7121 31.7354 21.5014C31.7354 21.331 31.6715 21.1877 31.5437 21.0717C31.4182 20.9557 31.2253 20.8681 30.9648 20.8089L30.0415 20.6065C29.5326 20.4905 29.1561 20.3059 28.9123 20.0526C28.6708 19.7992 28.5501 19.4785 28.5501 19.0902C28.5501 18.7682 28.64 18.4865 28.82 18.245C28.9999 18.0036 29.2485 17.8153 29.5657 17.6804C29.8829 17.5431 30.2463 17.4744 30.6559 17.4744C31.2454 17.4744 31.7094 17.6023 32.0479 17.858C32.3865 18.1113 32.6102 18.451 32.7191 18.8771ZM36.5392 17.5455V18.3977H33.5598V17.5455H36.5392ZM34.3588 16.2386H35.4206V21.3984C35.4206 21.6044 35.4514 21.7595 35.513 21.8636C35.5745 21.9654 35.6538 22.0353 35.7509 22.0732C35.8503 22.1087 35.958 22.1264 36.074 22.1264C36.1593 22.1264 36.2338 22.1205 36.2978 22.1087C36.3617 22.0968 36.4114 22.0874 36.4469 22.0803L36.6387 22.9574C36.5771 22.9811 36.4895 23.0047 36.3759 23.0284C36.2623 23.0545 36.1202 23.0687 35.9498 23.071C35.6704 23.0758 35.41 23.026 35.1685 22.9219C34.927 22.8177 34.7317 22.6567 34.5826 22.4389C34.4334 22.2211 34.3588 21.9477 34.3588 21.6186V16.2386Z" fill="white"/>
</svg>
