<svg width="25" height="25" viewBox="0 0 25 25" fill="none" xmlns="http://www.w3.org/2000/svg">
<path d="M25 12.3826C25 15.6667 23.683 18.8163 21.3388 21.1385C18.9946 23.4607 15.8152 24.7653 12.5 24.7653C9.18479 24.7653 6.00537 23.4607 3.66117 21.1385C1.31696 18.8163 0 15.6667 0 12.3826C0 9.09855 1.31696 5.94898 3.66117 3.62679C6.00537 1.30459 9.18479 0 12.5 0C15.8152 0 18.9946 1.30459 21.3388 3.62679C23.683 5.94898 25 9.09855 25 12.3826ZM8.5875 9.33805H9.87656C10.0922 9.33805 10.2641 9.16315 10.2922 8.95109C10.4328 7.93572 11.1359 7.19586 12.3891 7.19586C13.4609 7.19586 14.4422 7.72676 14.4422 9.00372C14.4422 9.98659 13.8578 10.4386 12.9344 11.1258C11.8828 11.8827 11.05 12.7665 11.1094 14.2013L11.1141 14.5372C11.1157 14.6388 11.1576 14.7356 11.2307 14.8068C11.3037 14.8781 11.4022 14.918 11.5047 14.918H12.7719C12.8755 14.918 12.9748 14.8772 13.0481 14.8046C13.1213 14.7321 13.1625 14.6336 13.1625 14.531V14.3685C13.1625 13.2572 13.5891 12.9337 14.7406 12.0684C15.6922 11.3518 16.6844 10.5562 16.6844 8.88608C16.6844 6.54732 14.6906 5.4174 12.5078 5.4174C10.5281 5.4174 8.35938 6.33062 8.21094 8.95574C8.2088 9.00572 8.217 9.05561 8.23505 9.10234C8.25309 9.14907 8.2806 9.19165 8.31587 9.22746C8.35114 9.26327 8.39343 9.29155 8.44014 9.31057C8.48686 9.32959 8.537 9.33894 8.5875 9.33805ZM12.2203 19.3107C13.1734 19.3107 13.8281 18.7009 13.8281 17.8759C13.8281 17.0215 13.1719 16.4209 12.2203 16.4209C11.3078 16.4209 10.6437 17.0215 10.6437 17.8759C10.6437 18.7009 11.3063 19.3107 12.2203 19.3107Z" fill="white"/>
</svg>
