<svg width="30" height="24" viewBox="0 0 30 24" fill="none" xmlns="http://www.w3.org/2000/svg">
<path d="M15 0C16.2825 0 17.598 0.0330001 18.873 0.0870001L20.379 0.159L21.8205 0.2445L23.1705 0.336L24.4035 0.432C25.7416 0.534417 27.0007 1.10542 27.9593 2.04456C28.9179 2.9837 29.5146 4.23081 29.6445 5.5665L29.7045 6.204L29.817 7.569C29.922 8.9835 30 10.5255 30 12C30 13.4745 29.922 15.0165 29.817 16.431L29.7045 17.796C29.685 18.015 29.6655 18.2265 29.6445 18.4335C29.5146 19.7694 28.9176 21.0167 27.9587 21.9559C26.9998 22.8951 25.7403 23.4659 24.402 23.568L23.172 23.6625L21.822 23.7555L20.379 23.841L18.873 23.913C17.5827 23.9691 16.2915 23.9981 15 24C13.7085 23.9981 12.4173 23.9691 11.127 23.913L9.621 23.841L8.1795 23.7555L6.8295 23.6625L5.5965 23.568C4.25843 23.4656 2.99933 22.8946 2.04071 21.9554C1.08209 21.0163 0.485361 19.7692 0.3555 18.4335L0.2955 17.796L0.183 16.431C0.0683063 14.9567 0.00726603 13.4787 0 12C0 10.5255 0.078 8.9835 0.183 7.569L0.2955 6.204C0.315 5.985 0.3345 5.7735 0.3555 5.5665C0.485311 4.23105 1.08183 2.98412 2.04014 2.04501C2.99845 1.10591 4.25719 0.534754 5.595 0.432L6.8265 0.336L8.1765 0.2445L9.6195 0.159L11.1255 0.0870001C12.4163 0.0309494 13.708 0.00194293 15 0ZM15 3C13.7625 3 12.489 3.033 11.25 3.084L9.783 3.1545L8.3745 3.237L7.0515 3.327L5.8395 3.4215C5.2025 3.4667 4.60207 3.73597 4.14464 4.18159C3.68721 4.62721 3.40233 5.22039 3.3405 5.856C3.165 7.6695 3 9.927 3 12C3 14.073 3.165 16.3305 3.3405 18.144C3.468 19.452 4.506 20.469 5.8395 20.5785L7.0515 20.6715L8.3745 20.7615L9.783 20.8455L11.25 20.916C12.489 20.967 13.7625 21 15 21C16.2375 21 17.511 20.967 18.75 20.916L20.217 20.8455L21.6255 20.763L22.9485 20.673L24.1605 20.5785C24.7975 20.5333 25.3979 20.264 25.8554 19.8184C26.3128 19.3728 26.5977 18.7796 26.6595 18.144C26.835 16.3305 27 14.073 27 12C27 9.927 26.835 7.6695 26.6595 5.856C26.5977 5.22039 26.3128 4.62721 25.8554 4.18159C25.3979 3.73597 24.7975 3.4667 24.1605 3.4215L22.9485 3.3285L21.6255 3.2385L20.217 3.1545L18.75 3.084C17.5007 3.03025 16.2504 3.00224 15 3ZM12 8.3625C11.9999 8.2159 12.0356 8.07149 12.104 7.94183C12.1725 7.81218 12.2715 7.7012 12.3926 7.61855C12.5137 7.5359 12.6532 7.48409 12.7988 7.46761C12.9445 7.45113 13.092 7.47049 13.2285 7.524L13.35 7.584L19.65 11.22C19.7755 11.2924 19.8816 11.394 19.9594 11.5162C20.0372 11.6383 20.0843 11.7775 20.0968 11.9218C20.1094 12.0661 20.0869 12.2113 20.0313 12.345C19.9757 12.4787 19.8886 12.5971 19.7775 12.69L19.65 12.78L13.35 16.4175C13.223 16.491 13.08 16.5324 12.9334 16.538C12.7868 16.5436 12.6411 16.5133 12.5089 16.4497C12.3767 16.3861 12.262 16.2912 12.1749 16.1731C12.0878 16.0551 12.0308 15.9176 12.009 15.7725L12 15.6375V8.3625Z" fill="white"/>
</svg>
